<?xml version="1.0" encoding="UTF-8"?><svg id="uuid-9db219fe-7b85-4306-b3b1-c30931c5edba" xmlns="http://www.w3.org/2000/svg" width="1080" height="1080" viewBox="0 0 1080 1080"><defs><style>.uuid-5cae4b1e-ef44-4320-b53a-c0679708d64a{fill:#fff;}.uuid-5cae4b1e-ef44-4320-b53a-c0679708d64a,.uuid-0dfc3a04-ed2c-49c9-9840-9242ff881d1e,.uuid-3a447bb8-938c-4bc3-8d86-ff4857653bb3,.uuid-07440146-c9bd-42bc-8059-c28bfbd9f63f,.uuid-5596d441-9e62-4a4b-aa8b-4ce69cd8d562{stroke:#000;stroke-miterlimit:10;stroke-width:40px;}.uuid-0dfc3a04-ed2c-49c9-9840-9242ff881d1e{fill:#feb1fe;}.uuid-3a447bb8-938c-4bc3-8d86-ff4857653bb3{fill:#b7feb9;}.uuid-07440146-c9bd-42bc-8059-c28bfbd9f63f{fill:#a8feff;}.uuid-5596d441-9e62-4a4b-aa8b-4ce69cd8d562{fill:none;}</style></defs><path class="uuid-0dfc3a04-ed2c-49c9-9840-9242ff881d1e" d="M670,150c0,71.79-58.2,130-130,130H280v260c0-71.8-58.2-130-130-130S20.91,467.29,20.01,538.32C20.91,252.46,252.46,20.91,538.32,20.01c.56-.01,1.12-.01,1.68-.01s1.12,0,1.68,.01c71.03,.9,128.32,58.75,128.32,129.99Z"/><path class="uuid-07440146-c9bd-42bc-8059-c28bfbd9f63f" d="M1060,540c0,.56,0,1.12-.01,1.68-.9,71.02-58.75,128.32-129.99,128.32s-130-58.21-130-130V280h-260c71.8,0,130-58.21,130-130S612.71,20.91,541.68,20.01c285.86,.9,517.41,232.45,518.31,518.31,.01,.56,.01,1.12,.01,1.68Z"/><path class="uuid-5cae4b1e-ef44-4320-b53a-c0679708d64a" d="M1059.99,541.68c-.9,285.86-232.45,517.41-518.31,518.31-.56,0-1.12,0-1.68,0s-1.12,0-1.68,0c-71.02-.9-128.32-58.76-128.32-129.99s58.21-130,130-130h260v-260c0,71.79,58.21,130,130,130s129.09-57.3,129.99-128.32Z"/><path class="uuid-3a447bb8-938c-4bc3-8d86-ff4857653bb3" d="M538.32,1059.99c-285.86-.9-517.41-232.45-518.31-518.31,0-.56,0-1.12,0-1.68s0-1.12,0-1.68c.9-71.03,58.76-128.32,129.99-128.32s130,58.2,130,130v260h260c-71.79,0-130,58.2-130,130s57.3,129.09,128.32,129.99Z"/><rect class="uuid-5596d441-9e62-4a4b-aa8b-4ce69cd8d562" x="280" y="280" width="520" height="520"/><rect class="uuid-5cae4b1e-ef44-4320-b53a-c0679708d64a" x="280" y="280" width="520" height="520"/></svg>