<?xml version="1.0" encoding="UTF-8"?><svg id="uuid-23962abd-9116-459c-ba32-3668b55e5eba" xmlns="http://www.w3.org/2000/svg" width="1080" height="1080" viewBox="0 0 1080 1080"><defs><style>.uuid-ade3fa71-5d60-4025-b9b5-dad359b5526a{fill:none;stroke:#fff;stroke-miterlimit:10;stroke-width:40px;}</style></defs><path class="uuid-ade3fa71-5d60-4025-b9b5-dad359b5526a" d="M670,150c0,71.79-58.2,130-130,130H280v260c0-71.8-58.2-130-130-130S20.91,467.29,20.01,538.32C20.91,252.46,252.46,20.91,538.32,20.01c.56-.01,1.12-.01,1.68-.01s1.12,0,1.68,.01c71.03,.9,128.32,58.75,128.32,129.99Z"/><path class="uuid-ade3fa71-5d60-4025-b9b5-dad359b5526a" d="M1060,540c0,.56,0,1.12-.01,1.68-.9,71.02-58.75,128.32-129.99,128.32s-130-58.21-130-130V280h-260c71.8,0,130-58.21,130-130S612.71,20.91,541.68,20.01c285.86,.9,517.41,232.45,518.31,518.31,.01,.56,.01,1.12,.01,1.68Z"/><path class="uuid-ade3fa71-5d60-4025-b9b5-dad359b5526a" d="M1059.99,541.68c-.9,285.86-232.45,517.41-518.31,518.31-.56,0-1.12,0-1.68,0s-1.12,0-1.68,0c-71.02-.9-128.32-58.76-128.32-129.99s58.21-130,130-130h260v-260c0,71.79,58.21,130,130,130s129.09-57.3,129.99-128.32Z"/><path class="uuid-ade3fa71-5d60-4025-b9b5-dad359b5526a" d="M538.32,1059.99c-285.86-.9-517.41-232.45-518.31-518.31,0-.56,0-1.12,0-1.68s0-1.12,0-1.68c.9-71.03,58.76-128.32,129.99-128.32s130,58.2,130,130v260h260c-71.79,0-130,58.2-130,130s57.3,129.09,128.32,129.99Z"/><rect class="uuid-ade3fa71-5d60-4025-b9b5-dad359b5526a" x="280" y="280" width="520" height="520"/><rect class="uuid-ade3fa71-5d60-4025-b9b5-dad359b5526a" x="280" y="280" width="520" height="520"/></svg>