<?xml version="1.0" encoding="UTF-8"?><svg id="uuid-997eae38-a0e8-4480-9766-0c5f795fed3f" xmlns="http://www.w3.org/2000/svg" width="1080" height="1080" viewBox="0 0 1080 1080"><defs><style>.uuid-2bdd695e-d92a-41fa-aca7-dafd10eb7c77{fill:#71feff;}.uuid-2bdd695e-d92a-41fa-aca7-dafd10eb7c77,.uuid-60dfb20b-d93c-4b6f-9bf8-fc3ca28897c1,.uuid-52c1ad02-9c18-4c20-a82a-f18f968d7581,.uuid-c096d2b3-6383-4012-8e16-5ee0a69ec833{stroke:#000;stroke-miterlimit:10;}.uuid-2bdd695e-d92a-41fa-aca7-dafd10eb7c77,.uuid-60dfb20b-d93c-4b6f-9bf8-fc3ca28897c1,.uuid-c096d2b3-6383-4012-8e16-5ee0a69ec833{stroke-width:38.49px;}.uuid-60dfb20b-d93c-4b6f-9bf8-fc3ca28897c1{fill:#feb1fe;}.uuid-52c1ad02-9c18-4c20-a82a-f18f968d7581{fill:#fff;stroke-width:38.52px;}.uuid-c096d2b3-6383-4012-8e16-5ee0a69ec833{fill:#b7feb9;}</style></defs><path class="uuid-60dfb20b-d93c-4b6f-9bf8-fc3ca28897c1" d="M540,20V280c-237.04,0-257.98,432.24-456.86,508.55-40.26-73.84-63.14-158.52-63.14-248.55C20,252.81,252.81,20,540,20Z"/><path class="uuid-c096d2b3-6383-4012-8e16-5ee0a69ec833" d="M540,280v780c-197.16,0-368.7-109.73-456.86-271.45,198.88-76.31,219.82-508.55,456.86-508.55Z"/><path class="uuid-52c1ad02-9c18-4c20-a82a-f18f968d7581" d="M996.97,788.34c-88.12,161.84-259.72,271.66-456.97,271.66V280c236.82,0,260.47,431.42,456.97,508.34Z"/><path class="uuid-2bdd695e-d92a-41fa-aca7-dafd10eb7c77" d="M1060,540c0,89.94-22.83,174.55-63.03,248.34-196.5-76.92-220.15-508.34-456.97-508.34V20c287.19,0,520,232.81,520,520Z"/></svg>