<?xml version="1.0" encoding="UTF-8"?><svg id="uuid-6dc45624-57a3-40f7-9dcb-8251449420dd" xmlns="http://www.w3.org/2000/svg" width="1080" height="1080" viewBox="0 0 1080 1080"><defs><style>.uuid-a0d0f02e-2647-4ba8-bf04-a415658ce689{fill:#fff;stroke:#000;stroke-miterlimit:10;stroke-width:40px;}</style></defs><path class="uuid-a0d0f02e-2647-4ba8-bf04-a415658ce689" d="M540,20.7c0,286.81-232.5,519.3-519.3,519.3C20.7,253.2,253.19,20.7,540,20.7Z"/><path class="uuid-a0d0f02e-2647-4ba8-bf04-a415658ce689" d="M1059.3,540c-286.81,0-519.3-232.49-519.3-519.3,286.8,0,519.3,232.5,519.3,519.3Z"/><path class="uuid-a0d0f02e-2647-4ba8-bf04-a415658ce689" d="M540,1059.3c-286.81,0-519.3-232.49-519.3-519.3,286.8,0,519.3,232.5,519.3,519.3Z"/><path class="uuid-a0d0f02e-2647-4ba8-bf04-a415658ce689" d="M1059.3,540c-286.81,0-519.3,232.5-519.3,519.3,0-286.8-232.5-519.3-519.3-519.3,286.8,0,519.3-232.49,519.3-519.3,0,286.81,232.49,519.3,519.3,519.3Z"/><path class="uuid-a0d0f02e-2647-4ba8-bf04-a415658ce689" d="M1059.3,540c0,286.81-232.5,519.3-519.3,519.3,0-286.8,232.49-519.3,519.3-519.3Z"/></svg>