<?xml version="1.0" encoding="UTF-8"?><svg id="uuid-d067e605-ba10-4ba4-807b-0c20cb47eae8" xmlns="http://www.w3.org/2000/svg" width="1080" height="1080" viewBox="0 0 1080 1080"><defs><style>.uuid-914fe6e6-25ce-48b7-bee6-20cbe1a5e0a9{fill:none;stroke:#fff;stroke-miterlimit:10;stroke-width:40px;}</style></defs><path class="uuid-914fe6e6-25ce-48b7-bee6-20cbe1a5e0a9" d="M540,20.7c0,286.81-232.5,519.3-519.3,519.3C20.7,253.2,253.19,20.7,540,20.7Z"/><path class="uuid-914fe6e6-25ce-48b7-bee6-20cbe1a5e0a9" d="M1059.3,540c-286.81,0-519.3-232.49-519.3-519.3,286.8,0,519.3,232.5,519.3,519.3Z"/><path class="uuid-914fe6e6-25ce-48b7-bee6-20cbe1a5e0a9" d="M540,1059.3c-286.81,0-519.3-232.49-519.3-519.3,286.8,0,519.3,232.5,519.3,519.3Z"/><path class="uuid-914fe6e6-25ce-48b7-bee6-20cbe1a5e0a9" d="M1059.3,540c-286.81,0-519.3,232.5-519.3,519.3,0-286.8-232.5-519.3-519.3-519.3,286.8,0,519.3-232.49,519.3-519.3,0,286.81,232.49,519.3,519.3,519.3Z"/><path class="uuid-914fe6e6-25ce-48b7-bee6-20cbe1a5e0a9" d="M1059.3,540c0,286.81-232.5,519.3-519.3,519.3,0-286.8,232.49-519.3,519.3-519.3Z"/></svg>