<?xml version="1.0" encoding="UTF-8"?><svg id="uuid-52a6fc84-5bbc-4c1e-a959-83c932daf0a1" xmlns="http://www.w3.org/2000/svg" width="1080" height="1080" viewBox="0 0 1080 1080"><defs><style>.uuid-d414a5f1-b8ca-4f55-a125-2eefef7237e4{fill:#fff;}.uuid-d414a5f1-b8ca-4f55-a125-2eefef7237e4,.uuid-b350f967-c524-4f82-947e-bdaba4c3e5e5,.uuid-da374a75-8999-401e-bce8-b57e62319d6a,.uuid-6c6666b6-0979-48db-b7dd-d4cd25a28681{stroke:#000;stroke-miterlimit:10;stroke-width:40px;}.uuid-b350f967-c524-4f82-947e-bdaba4c3e5e5{fill:#feb1fe;}.uuid-da374a75-8999-401e-bce8-b57e62319d6a{fill:#b7feb9;}.uuid-6c6666b6-0979-48db-b7dd-d4cd25a28681{fill:#a8feff;}</style></defs><path class="uuid-b350f967-c524-4f82-947e-bdaba4c3e5e5" d="M540,20.7c0,286.81-232.5,519.3-519.3,519.3C20.7,253.2,253.19,20.7,540,20.7Z"/><path class="uuid-6c6666b6-0979-48db-b7dd-d4cd25a28681" d="M1059.3,540c-286.81,0-519.3-232.49-519.3-519.3,286.8,0,519.3,232.5,519.3,519.3Z"/><path class="uuid-da374a75-8999-401e-bce8-b57e62319d6a" d="M540,1059.3c-286.81,0-519.3-232.49-519.3-519.3,286.8,0,519.3,232.5,519.3,519.3Z"/><path class="uuid-d414a5f1-b8ca-4f55-a125-2eefef7237e4" d="M1059.3,540c-286.81,0-519.3,232.5-519.3,519.3,0-286.8-232.5-519.3-519.3-519.3,286.8,0,519.3-232.49,519.3-519.3,0,286.81,232.49,519.3,519.3,519.3Z"/><path class="uuid-d414a5f1-b8ca-4f55-a125-2eefef7237e4" d="M1059.3,540c0,286.81-232.5,519.3-519.3,519.3,0-286.8,232.49-519.3,519.3-519.3Z"/></svg>