<?xml version="1.0" encoding="UTF-8"?><svg id="uuid-bed46bc5-8d29-4f39-b4cb-689006f1b09d" xmlns="http://www.w3.org/2000/svg" width="1080" height="1080" viewBox="0 0 1080 1080"><defs><style>.uuid-b521b792-a7fc-4188-a4e1-71f6abab37c0{fill:#71feff;stroke-miterlimit:10;stroke-width:38.49px;}.uuid-b521b792-a7fc-4188-a4e1-71f6abab37c0,.uuid-1182d6d7-e9ed-4ba7-b477-76766376bc4e,.uuid-6ca00866-6a45-4100-b0d2-076050dc9509,.uuid-9a79f696-424e-4ce8-8f72-1d90e19dd2e6{stroke:#000;}.uuid-1182d6d7-e9ed-4ba7-b477-76766376bc4e{fill:#b7feb9;}.uuid-1182d6d7-e9ed-4ba7-b477-76766376bc4e,.uuid-6ca00866-6a45-4100-b0d2-076050dc9509,.uuid-9a79f696-424e-4ce8-8f72-1d90e19dd2e6{stroke-linejoin:bevel;stroke-width:38.49px;}.uuid-6ca00866-6a45-4100-b0d2-076050dc9509{fill:#feb1fe;}.uuid-9a79f696-424e-4ce8-8f72-1d90e19dd2e6{fill:none;}</style></defs><path class="uuid-9a79f696-424e-4ce8-8f72-1d90e19dd2e6" d="M280.09,540c0,103.32,40.17,197.26,105.76,267.03,93.21,21.89,194.64,9.72,284.11-41.94,89.47-51.65,150.73-133.41,178.37-225.09-27.64-91.68-88.9-173.44-178.37-225.09-89.47-51.66-190.9-63.83-284.11-41.94-65.59,69.77-105.76,163.71-105.76,267.03Z"/><path class="uuid-b521b792-a7fc-4188-a4e1-71f6abab37c0" d="M385.85,807.03c71.14,75.7,172.17,122.97,284.24,122.97,30.68,0,60.53-3.54,89.17-10.25,167.18-39.1,292.98-185.74,300.47-362.99,.01-.1,.01-.19,.01-.29,.17-5.47,.26-10.96,.26-16.47s-.09-11-.26-16.47c0-.1,0-.19-.01-.29C1050.89,243.8,821.58,20,540,20c-93.55,0-181.32,24.7-257.16,67.94C442.3-2.35,638.85,31.86,759.26,160.25c20.12,21.45,38.11,45.52,53.45,72.09,56.04,97.07,65.61,208.2,35.62,307.66-27.64,91.68-88.9,173.44-178.37,225.09-89.47,51.66-190.9,63.83-284.11,41.94Z"/><g><path class="uuid-6ca00866-6a45-4100-b0d2-076050dc9509" d="M20,540c0,190.04,101.95,356.28,254.14,446.98-155.84-93.54-223.31-279.57-172.65-446.98,8.52-28.15,20.38-55.77,35.72-82.34,56.04-97.07,147.5-160.93,248.64-184.69,93.21-21.89,194.64-9.72,284.11,41.94,89.47,51.65,150.73,133.41,178.37,225.09,29.99-99.46,20.42-210.59-35.62-307.66-15.34-26.57-33.33-50.64-53.45-72.09C638.85,31.86,442.3-2.35,282.84,87.94c-.91,.52-1.82,1.04-2.73,1.56-.05,.03-.1,.06-.15,.09-1.25,.72-2.5,1.45-3.75,2.19-.69,.41-1.38,.83-2.07,1.24C121.95,183.72,20,349.96,20,540Z"/><path class="uuid-1182d6d7-e9ed-4ba7-b477-76766376bc4e" d="M274.14,986.98c.69,.41,1.38,.83,2.07,1.24,1.25,.74,2.5,1.47,3.75,2.19,.05,.03,.1,.06,.15,.09,.91,.52,1.82,1.04,2.73,1.56,75.84,43.24,163.61,67.94,257.16,67.94,281.58,0,510.89-223.8,519.73-503.24-7.49,177.25-133.29,323.89-300.47,362.99-28.64,6.71-58.49,10.25-89.17,10.25-112.07,0-213.1-47.27-284.24-122.97-65.59-69.77-105.76-163.71-105.76-267.03s40.17-197.26,105.76-267.03c-101.14,23.76-192.6,87.62-248.64,184.69-15.34,26.57-27.2,54.19-35.72,82.34-50.66,167.41,16.81,353.44,172.65,446.98Z"/></g></svg>